<svg xmlns="http://www.w3.org/2000/svg" fill="none" viewBox="0 0 50 50" id="Chartjs--Streamline-Svg-Logos" height="50" width="50">
  <desc>
    Chartjs Streamline Icon: https://streamlinehq.com
  </desc>
  <path fill="#36a2eb" d="M44.97255208333334 25.17015625c-6.844375 0.13437500000000002 -5.41875 4.4671875000000005 -10.242395833333335 5.562916666666667 -4.900104166666668 1.1131770833333334 -5.6736458333333335 -11.967552083333333 -10.572552083333333 -11.967552083333333 -4.899479166666667 0 -5.9848437500000005 12.706510416666667 -12.119635416666668 21.429687500000004l-0.17500000000000002 0.24692708333333335 13.152916666666666 7.592500000000001 19.956666666666667 -11.520833333333334V25.17015625Z" stroke-width="0.5208"></path>
  <path fill="#ffce56" d="M44.97229166666667 24.775729166666668c-2.2912500000000002 -2.9405208333333337 -3.8453645833333336 -6.32109375 -7.188958333333334 -6.32109375 -5.916875000000001 0 -4.36 9.652395833333333 -10.899322916666668 9.652395833333333 -6.5398958333333335 0 -7.227447916666667 -10.3825 -14.63609375 -0.62265625 -2.360729166666667 3.1097395833333334 -4.2608854166666665 6.577239583333333 -5.753541666666667 9.858385416666668L25.015625000000004 48.03494791666667l19.956666666666667 -11.520833333333334V24.775729166666668Z" stroke-width="0.5208"></path>
  <path fill="#fe6184" d="M5.058286458333334 28.774114583333333C7.303645833333333 22.55609375 8.272708333333334 17.520156250000003 12.559322916666668 17.520156250000003c6.539322916666667 0 8.095885416666667 18.371302083333333 13.701927083333334 16.502291666666668 5.605104166666667 -1.8680729166666667 4.982083333333334 -11.832291666666668 13.701875000000001 -11.832291666666668 1.6596875 0 3.3542708333333335 1.0168229166666667 5.009375 2.6615104166666668v11.662187500000002L25.015833333333337 48.034635416666674 5.058286458333334 36.51385416666667V28.774114583333333Z" opacity=".8" stroke-width="0.5208"></path>
  <path fill="#e7e9ed" d="M25.000052083333337 49.47916666666667 3.79740625 37.239895833333335V12.760416666666668L25.000052083333337 0.5208333333333334l21.20260416666667 12.239583333333334v24.479166666666668L25.000052083333337 49.47916666666667ZM6.288489583333334 35.80171875l18.711562500000003 10.801770833333334 18.711562500000003 -10.801770833333334V14.198541666666667L25.000052083333337 3.3968281250000003 6.288489583333334 14.198541666666667v21.603177083333335Z" stroke-width="0.5208"></path>
</svg>