<?xml version="1.0" encoding="UTF-8"?>
<svg version="1.1" xmlns="http://www.w3.org/2000/svg" width="50" height="50">
<path d="M0 0 C1.34888732 0.00015905 2.69778075 0.00584927 4.04663086 0.01586914 C5.10991859 0.01799156 5.10991859 0.01799156 6.19468689 0.02015686 C8.46699173 0.02577096 10.73919936 0.03832576 13.01147461 0.05102539 C14.54858257 0.05603858 16.08569206 0.0606018 17.62280273 0.06469727 C21.39823103 0.07574497 25.17358632 0.09301898 28.94897461 0.11352539 C29.44397461 3.08352539 29.44397461 3.08352539 29.94897461 6.11352539 C31.92897461 6.44352539 33.90897461 6.77352539 35.94897461 7.11352539 C35.97362853 11.65250244 35.9918125 16.19144082 36.00390625 20.73046875 C36.00894601 22.27572305 36.0157778 23.82097255 36.02441406 25.36621094 C36.03649537 27.58277568 36.04220634 29.79927757 36.04663086 32.01586914 C36.05179214 32.71066879 36.05695343 33.40546844 36.06227112 34.12132263 C36.06246738 35.78581869 36.0108659 37.45018038 35.94897461 39.11352539 C34.94897461 40.11352539 34.94897461 40.11352539 31.89794922 40.22705078 C30.5490619 40.22689174 29.20016847 40.22120151 27.85131836 40.21118164 C26.78803062 40.20905922 26.78803062 40.20905922 25.70326233 40.20689392 C23.43095749 40.20127982 21.15874986 40.18872502 18.88647461 40.17602539 C17.34936665 40.1710122 15.81225716 40.16644898 14.27514648 40.16235352 C10.49971819 40.15130581 6.7243629 40.1340318 2.94897461 40.11352539 C2.61897461 38.13352539 2.28897461 36.15352539 1.94897461 34.11352539 C-0.03102539 33.78352539 -2.01102539 33.45352539 -4.05102539 33.11352539 C-4.07567931 28.57454834 -4.09386328 24.03560996 -4.10595703 19.49658203 C-4.11099679 17.95132773 -4.11782859 16.40607823 -4.12646484 14.86083984 C-4.13854615 12.6442751 -4.14425712 10.42777321 -4.14868164 8.21118164 C-4.15384293 7.51638199 -4.15900421 6.82158234 -4.1643219 6.10572815 C-4.16451816 4.44123209 -4.11291668 2.7768704 -4.05102539 1.11352539 C-3.05102539 0.11352539 -3.05102539 0.11352539 0 0 Z M-0.05102539 4.11352539 C-0.05102539 4.77352539 -0.05102539 5.43352539 -0.05102539 6.11352539 C8.52897461 6.11352539 17.10897461 6.11352539 25.94897461 6.11352539 C25.94897461 5.45352539 25.94897461 4.79352539 25.94897461 4.11352539 C17.36897461 4.11352539 8.78897461 4.11352539 -0.05102539 4.11352539 Z M-0.05102539 10.11352539 C-0.05102539 16.71352539 -0.05102539 23.31352539 -0.05102539 30.11352539 C8.52897461 30.11352539 17.10897461 30.11352539 25.94897461 30.11352539 C25.94897461 23.51352539 25.94897461 16.91352539 25.94897461 10.11352539 C17.36897461 10.11352539 8.78897461 10.11352539 -0.05102539 10.11352539 Z M29.94897461 10.11352539 C29.94897461 11.10352539 29.94897461 12.09352539 29.94897461 13.11352539 C30.60897461 13.11352539 31.26897461 13.11352539 31.94897461 13.11352539 C31.94897461 12.12352539 31.94897461 11.13352539 31.94897461 10.11352539 C31.28897461 10.11352539 30.62897461 10.11352539 29.94897461 10.11352539 Z M29.94897461 17.11352539 C29.8580957 18.7203418 29.8580957 18.7203418 29.76538086 20.35961914 C29.68098924 21.7567693 29.59634055 23.15390396 29.51147461 24.55102539 C29.4721582 25.25807617 29.4328418 25.96512695 29.39233398 26.69360352 C29.06225586 32.00024414 29.06225586 32.00024414 27.94897461 33.11352539 C26.31640703 33.27067193 24.67762123 33.36437953 23.03881836 33.42993164 C22.04946289 33.47182617 21.06010742 33.5137207 20.04077148 33.55688477 C18.99985352 33.59620117 17.95893555 33.63551758 16.88647461 33.67602539 C15.84168945 33.71920898 14.7969043 33.76239258 13.72045898 33.80688477 C11.13010577 33.91333764 8.53965275 34.01535299 5.94897461 34.11352539 C5.94897461 34.77352539 5.94897461 35.43352539 5.94897461 36.11352539 C14.52897461 36.11352539 23.10897461 36.11352539 31.94897461 36.11352539 C31.94897461 29.84352539 31.94897461 23.57352539 31.94897461 17.11352539 C31.28897461 17.11352539 30.62897461 17.11352539 29.94897461 17.11352539 Z " fill="#CB5CE7" transform="translate(9.051025390625,4.886474609375)"/>
<path d="M0 0 C3.36573933 1.44245971 5.75010389 3.083468 8 6 C8.09766173 9.80880762 7.02188638 10.97597836 4.4375 13.8125 C3.633125 14.534375 2.82875 15.25625 2 16 C0.68 15.34 -0.64 14.68 -2 14 C-1.67 13.4225 -1.34 12.845 -1 12.25 C0.27075898 9.80116138 0.27075898 9.80116138 0 6 C-0.93283296 3.79932579 -0.93283296 3.79932579 -2 2 C-1.34 1.34 -0.68 0.68 0 0 Z " fill="#C95BEA" transform="translate(13,17)"/>
<path d="M0 0 C3.63 0 7.26 0 11 0 C11 1.32 11 2.64 11 4 C7.37 4 3.74 4 0 4 C0 2.68 0 1.36 0 0 Z " fill="#CB5CE7" transform="translate(21,28)"/>
</svg>
