<?xml version="1.0" encoding="UTF-8"?>
<svg version="1.1" xmlns="http://www.w3.org/2000/svg" width="64" height="64">
<path d="M0 0 C6.93 0 13.86 0 21 0 C22.32 2.31 23.64 4.62 25 7 C25.66 7 26.32 7 27 7 C28.32 4.69 29.64 2.38 31 0 C37.93 0 44.86 0 52 0 C50.52574537 4.4227639 49.32531344 7.46467585 47.0234375 11.34375 C46.43836426 12.33697266 45.85329102 13.33019531 45.25048828 14.35351562 C44.63157715 15.39185547 44.01266602 16.43019531 43.375 17.5 C42.10891168 19.64555999 40.84328481 21.79139236 39.578125 23.9375 C38.96517578 24.97390625 38.35222656 26.0103125 37.72070312 27.078125 C35.48941531 30.86700874 33.29801215 34.67746941 31.125 38.5 C30.50882813 39.5828125 29.89265625 40.665625 29.2578125 41.78125 C28.84273437 42.5134375 28.42765625 43.245625 28 44 C26.68 44 25.36 44 24 44 C23.66379639 43.40276123 23.32759277 42.80552246 22.98120117 42.19018555 C21.38446127 39.35530139 19.78616283 36.52130023 18.1875 33.6875 C17.60524658 32.65471924 17.02299316 31.62193848 16.4230957 30.55786133 C13.54188846 25.45775286 10.64437093 20.36917782 7.6875 15.3125 C7.18065674 14.44536377 6.67381348 13.57822754 6.15161133 12.68481445 C5.18911065 11.04309035 4.22290554 9.40353143 3.25268555 7.76635742 C2.8225415 7.03263916 2.39239746 6.2989209 1.94921875 5.54296875 C1.57112061 4.90383545 1.19302246 4.26470215 0.8034668 3.60620117 C0 2 0 2 0 0 Z " fill="#B434E8" transform="translate(6,11)"/>
<path d="M0 0 C3.27026367 -0.328125 3.27026367 -0.328125 7 0 C9.0480957 2.203125 9.0480957 2.203125 10.67578125 5.25 C11.27583984 6.3328125 11.87589844 7.415625 12.49414062 8.53125 C13.09419922 9.6759375 13.69425781 10.820625 14.3125 12 C15.53174887 14.25326325 16.75669417 16.5034568 17.98828125 18.75 C18.51977783 19.75546875 19.05127441 20.7609375 19.59887695 21.796875 C20.06124756 22.52390625 20.52361816 23.2509375 21 24 C21.66 24 22.32 24 23 24 C23.38857178 23.30849854 23.77714355 22.61699707 24.17749023 21.90454102 C25.92912311 18.78956569 27.68327651 15.67601708 29.4375 12.5625 C30.04916016 11.47388672 30.66082031 10.38527344 31.29101562 9.26367188 C31.87431641 8.22919922 32.45761719 7.19472656 33.05859375 6.12890625 C33.86768188 4.69140015 33.86768188 4.69140015 34.69311523 3.22485352 C36 1 36 1 37 0 C39.33297433 -0.04092937 41.66705225 -0.04241723 44 0 C42.5876971 3.75261736 40.87869881 7.18013771 38.91796875 10.67578125 C38.31533203 11.75150391 37.71269531 12.82722656 37.09179688 13.93554688 C36.46337891 15.04994141 35.83496094 16.16433594 35.1875 17.3125 C34.57068359 18.41529297 33.95386719 19.51808594 33.31835938 20.65429688 C26.33665727 33.08187501 26.33665727 33.08187501 23 38 C22.34 38 21.68 38 21 38 C20.57702637 37.26475098 20.15405273 36.52950195 19.71826172 35.77197266 C18.11987054 32.99453344 16.52064907 30.21757435 14.92089844 27.44091797 C14.2340518 26.24839573 13.54751835 25.05569303 12.86132812 23.86279297 C9.00292998 17.15572368 5.11924689 10.47685079 1.03564453 3.90380859 C0 2 0 2 0 0 Z " fill="#E288FE" transform="translate(10,13)"/>
<path d="M0 0 C0.33 0.66 0.66 1.32 1 2 C-0.07983398 4.33837891 -0.07983398 4.33837891 -1.74609375 7.2265625 C-2.33583984 8.2578125 -2.92558594 9.2890625 -3.53320312 10.3515625 C-4.16162109 11.43179688 -4.79003906 12.51203125 -5.4375 13.625 C-6.06205078 14.71296875 -6.68660156 15.8009375 -7.33007812 16.921875 C-8.87961699 19.61878233 -10.4365104 22.31116406 -12 25 C-12.99 25 -13.98 25 -15 25 C-13.46848834 19.56616202 -10.92393202 15.06447292 -8.0625 10.25 C-7.61970703 9.48300781 -7.17691406 8.71601562 -6.72070312 7.92578125 C-6.07198242 6.82556641 -6.07198242 6.82556641 -5.41015625 5.703125 C-5.01965088 5.03958008 -4.62914551 4.37603516 -4.22680664 3.69238281 C-3 2 -3 2 0 0 Z " fill="#AE28EE" transform="translate(49,25)"/>
<path d="M0 0 C0.33 0.66 0.66 1.32 1 2 C-0.21484375 4.6015625 -0.21484375 4.6015625 -1.9375 7.625 C-2.50339844 8.62789062 -3.06929687 9.63078125 -3.65234375 10.6640625 C-4.09707031 11.43492188 -4.54179688 12.20578125 -5 13 C-5.99 13 -6.98 13 -8 13 C-6.33766168 7.50149633 -4.88568639 3.25712426 0 0 Z " fill="#A114F7" transform="translate(42,37)"/>
</svg>
